<svg width="108" height="33" viewBox="0 0 108 33" fill="none" xmlns="http://www.w3.org/2000/svg">
<path fill-rule="evenodd" clip-rule="evenodd" d="M5.80252 0C2.59788 0 0 2.59788 0 5.80252V26.4723C0 29.677 2.59788 32.2749 5.80252 32.2749H26.4723C29.677 32.2749 32.2749 29.677 32.2749 26.4723V5.80252C32.2749 2.59788 29.677 0 26.4723 0H5.80252ZM28.7379 9.11115C28.7379 8.6101 28.5399 8.12955 28.1874 7.7752C28.0129 7.5996 27.8055 7.4603 27.5774 7.36527C27.3492 7.27023 27.1046 7.22131 26.8576 7.22131C26.6106 7.22131 26.3661 7.27023 26.1379 7.36527C25.9097 7.4603 25.7024 7.5996 25.5278 7.7752L12.6771 20.6926L6.91669 14.9028C6.74326 14.7223 6.53581 14.5784 6.30644 14.4794C6.07706 14.3803 5.83036 14.3282 5.58073 14.326C5.3311 14.3238 5.08354 14.3716 4.85249 14.4667C4.62144 14.5617 4.41153 14.702 4.23501 14.8794C4.05849 15.0568 3.91889 15.2678 3.82436 15.5C3.72983 15.7323 3.68226 15.9811 3.68443 16.232C3.6866 16.4829 3.73846 16.7308 3.83699 16.9614C3.93552 17.1919 4.07875 17.4004 4.25831 17.5747L11.2596 24.6104C11.4458 24.7976 11.6669 24.9461 11.9102 25.0474C12.1536 25.1488 12.4144 25.2009 12.6778 25.2009C12.9411 25.2009 13.202 25.1488 13.4453 25.0474C13.6886 24.9461 13.9097 24.7976 14.0959 24.6104L28.1874 10.4471C28.5399 10.0928 28.7379 9.61221 28.7379 9.11115Z" fill="#5352ED"/>
<path d="M43.5825 24.6374V10.0129H38.3646V7.6433H51.3855V10.0129H46.1676V24.6374H43.5825ZM54.8812 24.9247C53.5567 24.9247 52.4956 24.6215 51.6978 24.0151C50.9159 23.4087 50.5249 22.555 50.5249 21.454C50.5249 20.353 50.852 19.4993 51.5063 18.8929C52.1765 18.2706 53.2057 17.8238 54.5939 17.5526L58.9741 16.7148C58.9741 15.7255 58.7427 14.9915 58.28 14.5128C57.8172 14.0181 57.1311 13.7708 56.2215 13.7708C55.4077 13.7708 54.7695 13.9543 54.3067 14.3213C53.844 14.6723 53.5248 15.1989 53.3493 15.901L50.7403 15.7335C50.9797 14.4569 51.5701 13.4516 52.5116 12.7176C53.469 11.9836 54.7056 11.6166 56.2215 11.6166C57.9449 11.6166 59.2534 12.0793 60.1469 13.0048C61.0565 13.9144 61.5113 15.1989 61.5113 16.8584V21.8131C61.5113 22.1162 61.5591 22.3317 61.6549 22.4593C61.7666 22.571 61.9421 22.6269 62.1815 22.6269H62.6362V24.6374C62.5564 24.6534 62.4288 24.6693 62.2533 24.6853C62.0777 24.7013 61.8942 24.7092 61.7027 24.7092C61.1602 24.7092 60.6895 24.6215 60.2906 24.4459C59.9076 24.2704 59.6204 23.9832 59.4289 23.5843C59.2374 23.1694 59.1417 22.6189 59.1417 21.9327L59.4049 22.0524C59.2773 22.6109 58.998 23.1056 58.5672 23.5364C58.1523 23.9672 57.6178 24.3103 56.9635 24.5656C56.3253 24.805 55.6311 24.9247 54.8812 24.9247ZM55.2881 22.9141C56.054 22.9141 56.7082 22.7705 57.2508 22.4832C57.7933 22.1801 58.2162 21.7652 58.5193 21.2386C58.8225 20.712 58.9741 20.1136 58.9741 19.4434V18.6296L55.2402 19.3477C54.4743 19.4913 53.9317 19.7227 53.6126 20.0418C53.3094 20.345 53.1578 20.736 53.1578 21.2147C53.1578 21.7572 53.3413 22.1801 53.7083 22.4832C54.0913 22.7705 54.6179 22.9141 55.2881 22.9141ZM69.113 24.9247C67.9162 24.9247 66.903 24.7411 66.0732 24.3741C65.2594 24.0071 64.6291 23.5045 64.1823 22.8662C63.7355 22.212 63.4802 21.462 63.4164 20.6163L66.0253 20.4966C66.153 21.1987 66.4562 21.7572 66.9349 22.1721C67.4136 22.587 68.1396 22.7944 69.113 22.7944C69.9108 22.7944 70.5411 22.6667 71.0039 22.4114C71.4666 22.1561 71.698 21.7492 71.698 21.1907C71.698 20.8876 71.6182 20.6322 71.4587 20.4248C71.315 20.2014 71.0278 20.0179 70.597 19.8743C70.1661 19.7147 69.5279 19.5631 68.6822 19.4195C67.4216 19.1802 66.4322 18.9009 65.7142 18.5818C64.9961 18.2626 64.4855 17.8557 64.1823 17.3611C63.8791 16.8664 63.7275 16.268 63.7275 15.5659C63.7275 14.4011 64.1584 13.4516 65.02 12.7176C65.8977 11.9836 67.1583 11.6166 68.8018 11.6166C69.9029 11.6166 70.8284 11.8081 71.5783 12.191C72.3283 12.558 72.9107 13.0607 73.3256 13.699C73.7565 14.3213 74.0277 15.0234 74.1394 15.8053L71.5305 15.9489C71.4507 15.5021 71.2911 15.1191 71.0518 14.8C70.8284 14.4649 70.5252 14.2096 70.1422 14.034C69.7592 13.8426 69.3045 13.7468 68.7779 13.7468C67.9641 13.7468 67.3577 13.9064 66.9588 14.2255C66.5599 14.5447 66.3604 14.9596 66.3604 15.4702C66.3604 15.8531 66.4482 16.1643 66.6237 16.4037C66.8152 16.643 67.1184 16.8425 67.5333 17.002C67.9481 17.1457 68.4986 17.2733 69.1848 17.385C70.5092 17.6084 71.5464 17.8876 72.2964 18.2227C73.0464 18.5419 73.573 18.9408 73.8761 19.4195C74.1793 19.8982 74.3309 20.4806 74.3309 21.1668C74.3309 21.9646 74.1075 22.6428 73.6607 23.2013C73.2139 23.7598 72.5996 24.1906 71.8177 24.4938C71.0358 24.781 70.1342 24.9247 69.113 24.9247ZM76.4198 24.6374V7.6433H78.957V18.1988L84.6775 11.9038H87.8849L82.9063 17.2653L88.0764 24.6374H85.1562L81.2069 18.8451L78.957 21.2386V24.6374H76.4198ZM92.3449 24.6374C91.5151 24.6374 90.845 24.422 90.3343 23.9912C89.8237 23.5603 89.5684 22.8742 89.5684 21.9327V7.6433H92.1056V21.6934C92.1056 21.9806 92.1774 22.196 92.321 22.3396C92.4805 22.4832 92.7039 22.555 92.9912 22.555H93.9964V24.6374H92.3449ZM95.9085 28.2277V26.1454H97.4643C97.8951 26.1454 98.2143 26.0815 98.4217 25.9539C98.6291 25.8262 98.7887 25.6108 98.9004 25.3076L99.3073 24.2545H98.5174L93.9218 11.9038H96.6026L100.097 21.9088L103.424 11.9038H106.129L101.055 26.1214C100.799 26.8554 100.416 27.39 99.9057 27.7251C99.411 28.0602 98.7169 28.2277 97.8233 28.2277H95.9085Z" fill="#464646"/>
</svg>
